<?xml version="1.0" standalone="no"?>
<!DOCTYPE svg PUBLIC "-//W3C//DTD SVG 20010904//EN"
 "http://www.w3.org/TR/2001/REC-SVG-20010904/DTD/svg10.dtd">
<svg version="1.0" xmlns="http://www.w3.org/2000/svg"
 width="949.000000pt" height="949.000000pt" viewBox="0 0 949.000000 949.000000"
 preserveAspectRatio="xMidYMid meet">
<metadata>
Created by potrace 1.11, written by Peter Selinger 2001-2013
</metadata>
<g transform="translate(0.000000,949.000000) scale(0.100000,-0.100000)"
fill="#000000" stroke="none">
<path d="M5385 9356 c-170 -74 -1295 -555 -2500 -1070 -1204 -515 -2207 -944
-2227 -953 -46 -19 -82 -57 -102 -105 -14 -34 -16 -397 -16 -3555 0 -3391 1
-3519 19 -3558 35 -79 113 -121 205 -112 102 9 8002 1137 8038 1147 50 14 97
55 119 105 18 39 19 167 19 3558 0 3153 -2 3521 -15 3555 -19 43 -50 79 -85
97 -14 7 -709 240 -1545 519 -1015 338 -1533 506 -1560 506 -29 -1 -128 -39
-350 -134z m3155 -4569 l0 -3273 -1317 -187 c-1881 -268 -6212 -885 -6250
-891 l-33 -5 0 3272 0 3273 1077 153 c761 108 6409 914 6516 930 4 1 7 -1472
7 -3272z"/>
<path d="M4715 7291 l-3470 -497 -3 -552 c-2 -521 -1 -552 15 -552 10 1 1584
225 3498 498 l3480 498 3 552 2 552 -27 -1 c-16 -1 -1589 -225 -3498 -498z"/>
<path d="M4720 6040 c-1911 -274 -3476 -499 -3477 -499 -2 -1 -3 -249 -3 -552
l0 -550 58 7 c31 4 1605 228 3497 498 l3440 492 3 552 2 552 -22 -1 c-13 -1
-1587 -225 -3498 -499z"/>
<path d="M4770 4795 c-1895 -272 -3464 -496 -3487 -500 l-43 -6 0 -550 0 -550
33 6 c28 5 6958 995 6964 995 2 0 3 248 3 550 0 434 -3 550 -12 549 -7 -1
-1563 -223 -3458 -494z"/>
<path d="M4708 3531 l-3468 -496 0 -546 0 -545 3500 500 3500 500 0 543 0 543
-32 -1 c-18 -1 -1593 -225 -3500 -498z"/>
<path d="M4725 2289 c-1914 -274 -3481 -498 -3482 -499 -7 -1 -2 -1100 4
-1100 14 0 6947 990 6971 995 l22 5 0 550 c0 518 -1 550 -17 549 -10 -1 -1584
-225 -3498 -500z"/>
</g>
</svg>
